{
  "asset": {
    "version": "2.0"
  },
  "scenes": [
    {
      "nodes": [
        0
      ]
    }
  ],
  "nodes": [
    {
      "name": "Shrub",
      "mesh": 0
    }
  ],
  "meshes": [
    {
      "name": "Shrub",
      "primitives": [
        {
          "attributes": {
            "POSITION": 0,
            "NORMAL": 1,
            "TEXCOORD_0": 2
          },
          "indices": 3,
          "material": 0
        }
      ]
    }
  ],
  "materials": [
    {
      "name": "Shrub",
      "pbrMetallicRoughness": {
        "baseColorFactor": [
          0.15,
          0.4,
          0.18,
          1.0
        ],
        "metallicFactor": 0.0,
        "roughnessFactor": 0.7
      }
    }
  ],
  "buffers": [
    {
      "byteLength": 14032,
      "uri": "data:application/octet-stream;base64,"
    }
  ],
  "bufferViews": [
    {
      "buffer": 0,
      "byteOffset": 0,
      "byteLength": 3912,
      "target": 34962
    },
    {
      "buffer": 0,
      "byteOffset": 3912,
      "byteLength": 3912,
      "target": 34962
    },
    {
      "buffer": 0,
      "byteOffset": 7824,
      "byteLength": 2608,
      "target": 34962
    },
    {
      "buffer": 0,
      "byteOffset": 10432,
      "byteLength": 3600,
      "target": 34963
    }
  ],
  "accessors": [
    {
      "bufferView": 0,
      "componentType": 5126,
      "count": 326,
      "type": "VEC3",
      "min": [
        -0.6,
        0.0,
        -0.6
      ],
      "max": [
        0.6,
        0.6,
        0.6
      ]
    },
    {
      "bufferView": 1,
      "componentType": 5126,
      "count": 326,
      "type": "VEC3"
    },
    {
      "bufferView": 2,
      "componentType": 5126,
      "count": 326,
      "type": "VEC2"
    },
    {
      "bufferView": 3,
      "componentType": 5123,
      "count": 1800,
      "type": "SCALAR"
    }
  ]
}