{
  "asset": {
    "version": "2.0"
  },
  "scenes": [
    {
      "nodes": [
        0
      ]
    }
  ],
  "nodes": [
    {
      "name": "Tree",
      "children": [
        1,
        2
      ]
    },
    {
      "name": "Trunk",
      "mesh": 0
    },
    {
      "name": "Leaves",
      "mesh": 1
    }
  ],
  "meshes": [
    {
      "name": "Trunk",
      "primitives": [
        {
          "attributes": {
            "POSITION": 0,
            "NORMAL": 1,
            "TEXCOORD_0": 2
          },
          "indices": 3,
          "material": 0
        }
      ]
    },
    {
      "name": "Leaves",
      "primitives": [
        {
          "attributes": {
            "POSITION": 4,
            "NORMAL": 5,
            "TEXCOORD_0": 6
          },
          "indices": 7,
          "material": 1
        }
      ]
    }
  ],
  "materials": [
    {
      "name": "Bark",
      "pbrMetallicRoughness": {
        "baseColorFactor": [
          0.28,
          0.16,
          0.08,
          1.0
        ],
        "metallicFactor": 0.0,
        "roughnessFactor": 0.9
      }
    },
    {
      "name": "Foliage",
      "pbrMetallicRoughness": {
        "baseColorFactor": [
          0.12,
          0.35,
          0.16,
          1.0
        ],
        "metallicFactor": 0.0,
        "roughnessFactor": 0.8
      }
    }
  ],
  "buffers": [
    {
      "byteLength": 2816,
      "uri": "data:application/octet-stream;base64,"
    }
  ],
  "bufferViews": [
    {
      "buffer": 0,
      "byteOffset": 0,
      "byteLength": 408,
      "target": 34962
    },
    {
      "buffer": 0,
      "byteOffset": 408,
      "byteLength": 408,
      "target": 34962
    },
    {
      "buffer": 0,
      "byteOffset": 816,
      "byteLength": 272,
      "target": 34962
    },
    {
      "buffer": 0,
      "byteOffset": 1088,
      "byteLength": 384,
      "target": 34963
    },
    {
      "buffer": 0,
      "byteOffset": 1472,
      "byteLength": 396,
      "target": 34962
    },
    {
      "buffer": 0,
      "byteOffset": 1868,
      "byteLength": 396,
      "target": 34962
    },
    {
      "buffer": 0,
      "byteOffset": 2264,
      "byteLength": 264,
      "target": 34962
    },
    {
      "buffer": 0,
      "byteOffset": 2528,
      "byteLength": 288,
      "target": 34963
    }
  ],
  "accessors": [
    {
      "bufferView": 0,
      "componentType": 5126,
      "count": 34,
      "type": "VEC3",
      "min": [
        -0.12,
        0.0,
        -0.12
      ],
      "max": [
        0.12,
        0.6,
        0.12
      ]
    },
    {
      "bufferView": 1,
      "componentType": 5126,
      "count": 34,
      "type": "VEC3"
    },
    {
      "bufferView": 2,
      "componentType": 5126,
      "count": 34,
      "type": "VEC2"
    },
    {
      "bufferView": 3,
      "componentType": 5123,
      "count": 192,
      "type": "SCALAR"
    },
    {
      "bufferView": 4,
      "componentType": 5126,
      "count": 33,
      "type": "VEC3",
      "min": [
        -0.6,
        0.6,
        -0.6
      ],
      "max": [
        0.6,
        1.5,
        0.6
      ]
    },
    {
      "bufferView": 5,
      "componentType": 5126,
      "count": 33,
      "type": "VEC3"
    },
    {
      "bufferView": 6,
      "componentType": 5126,
      "count": 33,
      "type": "VEC2"
    },
    {
      "bufferView": 7,
      "componentType": 5123,
      "count": 144,
      "type": "SCALAR"
    }
  ]
}