<svg xmlns="http://www.w3.org/2000/svg" viewBox="0 0 410 404"><defs><linearGradient id="a" x1="6.127%" x2="78.127%" y1="16.127%" y2="79.872%"><stop offset="0%" stop-color="#41D1FF"/><stop offset="100%" stop-color="#BD34FE"/></linearGradient><linearGradient id="b" x1="43.014%" x2="50.976%" y1="46.941%" y2="54.974%"><stop offset="0%" stop-color="#FFEA83"/><stop offset="8.333%" stop-color="#FFDD35"/><stop offset="100%" stop-color="#FFA800"/></linearGradient></defs><path fill="url(#a)" d="M399.641 59.525 215.643 388.545c-5.74 10.003-20.696 9.96-26.383-.08L10.78 59.555c-5.993-10.448 2.978-23.213 14.477-21.173l184.31 33.254a15 15 0 0 0 5.318-.004l170.725-33.29c11.471-2.236 20.457 10.507 14.51 20.967Z"/><path fill="url(#b)" d="M292.965.322 156.789 29.032a7.5 7.5 0 0 0-5.968 8.674l36.345 190.985c1.35 7.1 10.806 9.152 14.891 3.258l24.115-34.972c1.845-2.676 5.922-2.182 7.093.808l32.024 81.611c2.396 6.107 11.408 5.538 12.769-.812l53.978-250.756c1.52-7.054-4.602-13.429-11.713-11.86Z"/></svg>
